<svg width="15" height="16" viewBox="0 0 15 16" fill="none" xmlns="http://www.w3.org/2000/svg">
<path d="M6 1.76758C6.39844 1.76758 6.75 2.00195 6.96094 2.33008C7.17188 2.68164 7.17188 3.12695 6.96094 3.45508C6.75 3.80664 6.39844 4.01758 6 4.01758C5.57812 4.01758 5.22656 3.80664 5.01562 3.45508C4.80469 3.12695 4.80469 2.68164 5.01562 2.33008C5.22656 2.00195 5.57812 1.76758 6 1.76758ZM4.3125 7.58008C3.32812 7.95508 2.625 8.91602 2.625 10.0176C2.625 11.4707 3.79688 12.6426 5.25 12.6426C6.23438 12.6426 7.125 12.0801 7.54688 11.2598C7.71094 10.9785 8.03906 10.8848 8.32031 11.0254C8.60156 11.166 8.69531 11.5176 8.55469 11.7988C7.92188 12.9707 6.67969 13.7676 5.25 13.7676C3.16406 13.7676 1.5 12.1035 1.5 10.0176C1.5 8.42383 2.50781 7.06445 3.91406 6.52539C4.19531 6.4082 4.52344 6.54883 4.64062 6.85352C4.75781 7.13477 4.59375 7.46289 4.3125 7.58008ZM5.88281 4.79102C6.1875 4.7207 6.49219 4.93164 6.53906 5.23633L6.65625 5.89258H9.5625C9.86719 5.89258 10.125 6.15039 10.125 6.45508C10.125 6.7832 9.86719 7.01758 9.5625 7.01758H6.86719L7.17188 8.75195C7.19531 8.8457 7.26562 8.89258 7.35938 8.89258H10.2422C10.6172 8.89258 10.9453 9.12695 11.1094 9.45508L12.1172 11.7754L12.75 11.5645C13.0312 11.4473 13.3594 11.6113 13.4531 11.916C13.5469 12.1973 13.4062 12.5254 13.1016 12.6191L11.9766 12.9941C11.6953 13.0879 11.3906 12.9473 11.2734 12.6895L10.125 10.0176H7.35938C6.72656 10.0176 6.1875 9.57227 6.07031 8.93945L5.4375 5.44727C5.39062 5.14258 5.57812 4.83789 5.88281 4.79102Z" fill="black"/>
</svg>
