<svg width="15" height="16" viewBox="0 0 15 16" fill="none" xmlns="http://www.w3.org/2000/svg">
<path d="M7.10156 2.30664C7.3125 2.0957 7.66406 2.0957 7.875 2.30664L9.75 4.18164C9.98438 4.41602 9.98438 4.76758 9.75 4.97852C9.53906 5.21289 9.1875 5.21289 8.97656 4.97852L8.0625 4.06445V6.83008C8.0625 7.1582 7.80469 7.39258 7.5 7.39258C7.17188 7.39258 6.9375 7.1582 6.9375 6.83008V4.06445L6.02344 4.97852C5.78906 5.21289 5.4375 5.21289 5.22656 4.97852C4.99219 4.76758 4.99219 4.41602 5.22656 4.18164L7.10156 2.30664ZM9.96094 7.43945C10.125 7.50977 10.2656 7.67383 10.2891 7.86133L10.7109 10.1816L13.0312 10.6035C13.2188 10.627 13.3828 10.7676 13.4531 10.9316C13.5234 11.1191 13.5 11.3066 13.3828 11.4707L12.3047 13.0176H13.6875C13.9922 13.0176 14.25 13.2754 14.25 13.5801C14.25 13.9082 13.9922 14.1426 13.6875 14.1426H1.3125C0.984375 14.1426 0.75 13.9082 0.75 13.5801C0.75 13.2754 0.984375 13.0176 1.3125 13.0176H2.67188L1.59375 11.4707C1.47656 11.3066 1.45312 11.1191 1.52344 10.9316C1.59375 10.7676 1.75781 10.627 1.94531 10.6035L4.26562 10.1816L4.6875 7.86133C4.71094 7.67383 4.85156 7.50977 5.01562 7.43945C5.20312 7.36914 5.39062 7.39258 5.55469 7.50977L7.5 8.8457L9.42188 7.50977C9.58594 7.39258 9.77344 7.36914 9.96094 7.43945ZM4.03125 13.0176H4.89844C5.0625 11.752 6.16406 10.7676 7.5 10.7676C8.8125 10.7676 9.91406 11.752 10.0781 13.0176H10.9453L11.9766 11.541L10.125 11.2129C9.91406 11.166 9.72656 10.9785 9.67969 10.7676L9.35156 8.91602L7.80469 9.9707C7.61719 10.1113 7.35938 10.1113 7.17188 9.9707L5.625 8.91602L5.29688 10.7676C5.25 10.9785 5.0625 11.166 4.85156 11.2129L3 11.541L4.03125 13.0176ZM8.95312 13.0176C8.76562 12.3848 8.17969 11.8926 7.5 11.8926C6.79688 11.8926 6.21094 12.3848 6.04688 13.0176H8.95312Z" fill="black"/>
</svg>
