<svg width="12" height="13" viewBox="0 0 12 13" fill="none" xmlns="http://www.w3.org/2000/svg">
<path d="M6.39844 1.4375L10.3359 5.5625C10.5469 5.79688 10.5469 6.14844 10.3125 6.35938C10.0781 6.57031 9.72656 6.57031 9.51562 6.33594L6.5625 3.21875V11.1875C6.5625 11.5156 6.30469 11.75 6 11.75C5.67188 11.75 5.4375 11.5156 5.4375 11.1875V3.21875L2.46094 6.33594C2.25 6.57031 1.89844 6.57031 1.66406 6.35938C1.42969 6.14844 1.42969 5.77344 1.64062 5.5625L5.57812 1.4375C5.69531 1.32031 5.83594 1.25 6 1.25C6.14062 1.25 6.28125 1.32031 6.39844 1.4375Z" fill="#826A47"/>
</svg>
