<svg width="15" height="16" viewBox="0 0 15 16" fill="none" xmlns="http://www.w3.org/2000/svg">
<path d="M1.125 3.08008V9.64258H6.75V6.08008C6.75 5.37695 7.33594 4.76758 8.0625 4.76758H12.1875C13.7344 4.76758 15 6.0332 15 7.58008V10.2051V12.6426C15 12.9707 14.7422 13.2051 14.4375 13.2051C14.1094 13.2051 13.875 12.9707 13.875 12.6426V10.7676H7.3125H1.125V12.4551C1.125 12.7832 0.867188 13.0176 0.5625 13.0176C0.234375 13.0176 0 12.7832 0 12.4551V10.2051V3.08008C0 2.77539 0.234375 2.51758 0.5625 2.51758C0.867188 2.51758 1.125 2.77539 1.125 3.08008ZM13.875 7.58008C13.875 6.66602 13.1016 5.89258 12.1875 5.89258H8.0625C7.94531 5.89258 7.875 5.98633 7.875 6.08008V9.64258H13.875V7.58008ZM3 6.83008C3 7.18164 3.16406 7.48633 3.46875 7.65039C3.75 7.81445 4.10156 7.81445 4.40625 7.65039C4.6875 7.48633 4.875 7.18164 4.875 6.83008C4.875 6.50195 4.6875 6.19727 4.40625 6.0332C4.10156 5.86914 3.75 5.86914 3.46875 6.0332C3.16406 6.19727 3 6.50195 3 6.83008ZM6 6.83008C6 7.58008 5.60156 8.25977 4.96875 8.63477C4.3125 8.98633 3.53906 8.98633 2.90625 8.63477C2.25 8.25977 1.875 7.58008 1.875 6.83008C1.875 6.10352 2.25 5.42383 2.90625 5.04883C3.53906 4.69727 4.3125 4.69727 4.96875 5.04883C5.60156 5.42383 6 6.10352 6 6.83008Z" fill="black"/>
</svg>
