<svg width="15" height="16" viewBox="0 0 15 16" fill="none" xmlns="http://www.w3.org/2000/svg">
<path d="M5.625 4.26758V7.26758H12C12.8203 7.26758 13.5 7.94727 13.5 8.76758V13.2676C13.5 14.1113 12.8203 14.7676 12 14.7676H4.125H3.75H3C2.15625 14.7676 1.5 14.1113 1.5 13.2676V7.26758C1.5 6.44727 2.15625 5.76758 3 5.76758H4.125C4.24219 5.76758 4.35938 5.79102 4.5 5.81445V4.26758C4.5 3.44727 5.15625 2.76758 6 2.76758H10.4766C10.875 2.76758 11.25 2.93164 11.5312 3.21289L12.3047 3.98633C12.5859 4.26758 12.75 4.64258 12.75 5.04102V6.51758H11.625V5.04102C11.625 4.94727 11.5781 4.85352 11.5078 4.7832L10.7344 4.00977C10.6641 3.93945 10.5703 3.89258 10.4766 3.89258H6C5.78906 3.89258 5.625 4.08008 5.625 4.26758ZM5.625 8.39258V13.2676C5.625 13.4082 5.60156 13.5254 5.57812 13.6426H12C12.1875 13.6426 12.375 13.4785 12.375 13.2676V8.76758C12.375 8.58008 12.1875 8.39258 12 8.39258H5.625ZM4.125 13.6426C4.3125 13.6426 4.5 13.4785 4.5 13.2676V7.83008V7.26758C4.5 7.08008 4.3125 6.89258 4.125 6.89258H3C2.78906 6.89258 2.625 7.08008 2.625 7.26758V13.2676C2.625 13.4785 2.78906 13.6426 3 13.6426H3.75H4.125ZM7.875 9.14258C8.27344 9.14258 8.625 9.49414 8.625 9.89258C8.625 10.3145 8.27344 10.6426 7.875 10.6426C7.45312 10.6426 7.125 10.3145 7.125 9.89258C7.125 9.49414 7.45312 9.14258 7.875 9.14258ZM7.125 12.1426C7.125 11.7441 7.45312 11.3926 7.875 11.3926C8.27344 11.3926 8.625 11.7441 8.625 12.1426C8.625 12.5645 8.27344 12.8926 7.875 12.8926C7.45312 12.8926 7.125 12.5645 7.125 12.1426ZM10.125 9.14258C10.5234 9.14258 10.875 9.49414 10.875 9.89258C10.875 10.3145 10.5234 10.6426 10.125 10.6426C9.70312 10.6426 9.375 10.3145 9.375 9.89258C9.375 9.49414 9.70312 9.14258 10.125 9.14258ZM9.375 12.1426C9.375 11.7441 9.70312 11.3926 10.125 11.3926C10.5234 11.3926 10.875 11.7441 10.875 12.1426C10.875 12.5645 10.5234 12.8926 10.125 12.8926C9.70312 12.8926 9.375 12.5645 9.375 12.1426Z" fill="black"/>
</svg>
