<svg width="11" height="12" viewBox="0 0 11 12" fill="none" xmlns="http://www.w3.org/2000/svg">
<path d="M7.1875 0.517578H10.1875C10.4922 0.517578 10.75 0.775391 10.75 1.08008V4.08008C10.75 4.4082 10.4922 4.64258 10.1875 4.64258C9.85938 4.64258 9.625 4.4082 9.625 4.08008V2.43945L6.27344 5.76758L9.625 9.11914V7.45508C9.625 7.15039 9.85938 6.89258 10.1875 6.89258C10.4922 6.89258 10.75 7.15039 10.75 7.45508V10.4551C10.75 10.7832 10.4922 11.0176 10.1875 11.0176H7.1875C6.85938 11.0176 6.625 10.7832 6.625 10.4551C6.625 10.1504 6.85938 9.89258 7.1875 9.89258H8.82812L5.5 6.56445L2.14844 9.89258H3.8125C4.11719 9.89258 4.375 10.1504 4.375 10.4551C4.375 10.7832 4.11719 11.0176 3.8125 11.0176H0.8125C0.484375 11.0176 0.25 10.7832 0.25 10.4551V7.45508C0.25 7.15039 0.484375 6.89258 0.8125 6.89258C1.11719 6.89258 1.375 7.15039 1.375 7.45508V9.11914L4.70312 5.76758L1.375 2.43945V4.08008C1.375 4.4082 1.11719 4.64258 0.8125 4.64258C0.484375 4.64258 0.25 4.4082 0.25 4.08008V1.08008C0.25 0.775391 0.484375 0.517578 0.8125 0.517578H3.8125C4.11719 0.517578 4.375 0.775391 4.375 1.08008C4.375 1.4082 4.11719 1.64258 3.8125 1.64258H2.14844L5.5 4.99414L8.82812 1.64258H7.1875C6.85938 1.64258 6.625 1.4082 6.625 1.08008C6.625 0.775391 6.85938 0.517578 7.1875 0.517578Z" fill="black"/>
</svg>
