<svg width="15" height="16" viewBox="0 0 15 16" fill="none" xmlns="http://www.w3.org/2000/svg">
<path d="M4.47656 4.37109L3.91406 5.98828H11.0625L10.5 4.37109C10.3594 3.99609 10.0078 3.73828 9.60938 3.73828H5.36719C4.96875 3.73828 4.61719 3.99609 4.47656 4.37109ZM2.625 6.29297L3.42188 3.99609C3.70312 3.17578 4.5 2.61328 5.36719 2.61328H9.60938C10.5 2.61328 11.2734 3.17578 11.5547 3.99609L12.375 6.29297C13.0312 6.69141 13.5 7.41797 13.5 8.23828V10.1133V11.2383V12.5508C13.5 12.8789 13.2422 13.1133 12.9375 13.1133C12.6094 13.1133 12.375 12.8789 12.375 12.5508V11.2383H2.625V12.5508C2.625 12.8789 2.36719 13.1133 2.0625 13.1133C1.73438 13.1133 1.5 12.8789 1.5 12.5508V11.2383V10.1133V8.23828C1.5 7.41797 1.94531 6.69141 2.625 6.29297ZM11.25 7.11328H3.75C3.11719 7.11328 2.625 7.62891 2.625 8.23828V10.1133H12.375V8.23828C12.375 7.62891 11.8594 7.11328 11.25 7.11328ZM4.125 7.86328C4.52344 7.86328 4.875 8.21484 4.875 8.61328C4.875 9.03516 4.52344 9.36328 4.125 9.36328C3.70312 9.36328 3.375 9.03516 3.375 8.61328C3.375 8.21484 3.70312 7.86328 4.125 7.86328ZM10.125 8.61328C10.125 8.21484 10.4531 7.86328 10.875 7.86328C11.2734 7.86328 11.625 8.21484 11.625 8.61328C11.625 9.03516 11.2734 9.36328 10.875 9.36328C10.4531 9.36328 10.125 9.03516 10.125 8.61328Z" fill="black"/>
</svg>
