<svg width="15" height="16" viewBox="0 0 15 16" fill="none" xmlns="http://www.w3.org/2000/svg">
<path d="M9.25781 4.11328H11.5547C11.1797 3.71484 10.1016 2.98828 7.5 2.98828C5.08594 2.98828 3.86719 3.71484 3.44531 4.11328H5.71875C5.83594 3.90234 6.09375 3.73828 6.375 3.73828H8.625C8.88281 3.73828 9.14062 3.90234 9.25781 4.11328ZM11.625 5.23828H8.0625V7.11328H11.625V5.23828ZM3.375 5.23828V7.11328H6.9375V5.23828H3.375ZM3.375 8.23828V10.6758C3.375 11.0039 3.60938 11.2383 3.9375 11.2383H9.28125H11.0625C11.3672 11.2383 11.625 11.0039 11.625 10.6758V8.23828H3.375ZM2.48438 3.50391C3.07031 2.77734 4.66406 1.86328 7.5 1.86328C10.5 1.86328 11.9531 2.77734 12.5156 3.52734C12.6797 3.76172 12.75 4.01953 12.75 4.23047V4.86328C13.1484 4.86328 13.5 5.21484 13.5 5.61328V7.11328C13.5 7.53516 13.1484 7.86328 12.75 7.86328V10.6758C12.75 11.2617 12.4453 11.7773 12 12.082V13.3008C12 13.6289 11.7422 13.8633 11.4375 13.8633C11.1094 13.8633 10.875 13.6289 10.875 13.3008V12.3633H9.28125H4.125V13.3008C4.125 13.6289 3.86719 13.8633 3.5625 13.8633C3.23438 13.8633 3 13.6289 3 13.3008V12.082C2.53125 11.7773 2.25 11.2617 2.25 10.6758V7.86328C1.82812 7.86328 1.5 7.53516 1.5 7.11328V5.61328C1.5 5.21484 1.82812 4.86328 2.25 4.86328V4.23047C2.25 4.01953 2.29688 3.73828 2.48438 3.50391ZM4.875 8.98828C5.27344 8.98828 5.625 9.33984 5.625 9.73828C5.625 10.1602 5.27344 10.4883 4.875 10.4883C4.45312 10.4883 4.125 10.1602 4.125 9.73828C4.125 9.33984 4.45312 8.98828 4.875 8.98828ZM10.125 8.98828C10.5234 8.98828 10.875 9.33984 10.875 9.73828C10.875 10.1602 10.5234 10.4883 10.125 10.4883C9.70312 10.4883 9.375 10.1602 9.375 9.73828C9.375 9.33984 9.70312 8.98828 10.125 8.98828Z" fill="black"/>
</svg>
