<svg width="12" height="13" viewBox="0 0 12 13" fill="none" xmlns="http://www.w3.org/2000/svg">
<path d="M11.0625 7.06445L6.9375 11.002C6.70312 11.2129 6.35156 11.2129 6.14062 10.9785C5.92969 10.7441 5.92969 10.3926 6.16406 10.1816L9.28125 7.20508H1.3125C0.984375 7.20508 0.75 6.9707 0.75 6.64258C0.75 6.33789 0.984375 6.08008 1.3125 6.08008H9.28125L6.16406 3.12695C5.92969 2.91602 5.92969 2.54102 6.14062 2.33008C6.35156 2.0957 6.72656 2.0957 6.9375 2.30664L11.0625 6.24414C11.1797 6.36133 11.25 6.50195 11.25 6.64258C11.25 6.80664 11.1797 6.94727 11.0625 7.06445Z" fill="black"/>
</svg>
