<svg width="7" height="13" viewBox="0 0 7 13" fill="none" xmlns="http://www.w3.org/2000/svg">
<path d="M4.0625 1.33008V2.50195C4.69531 2.57227 5.28125 2.68945 5.72656 2.7832C6.03125 2.85352 6.21875 3.1582 6.14844 3.46289C6.07812 3.76758 5.77344 3.95508 5.46875 3.88477C4.74219 3.7207 3.6875 3.50977 2.79688 3.60352C2.35156 3.62695 2 3.7207 1.74219 3.88477C1.50781 4.04883 1.34375 4.25977 1.27344 4.61133C1.20312 4.86914 1.25 5.05664 1.32031 5.17383C1.36719 5.31445 1.50781 5.43164 1.71875 5.57227C2.16406 5.85352 2.84375 6.01758 3.61719 6.22852L3.6875 6.25195C4.41406 6.43945 5.23438 6.65039 5.86719 7.02539C6.19531 7.21289 6.47656 7.49414 6.66406 7.86914C6.875 8.24414 6.89844 8.68945 6.82812 9.1582C6.66406 10.002 6.05469 10.541 5.30469 10.8223C4.92969 10.9629 4.50781 11.0566 4.0625 11.0801V12.2051C4.0625 12.5332 3.80469 12.7676 3.5 12.7676C3.17188 12.7676 2.9375 12.5332 2.9375 12.2051V11.0566C2.84375 11.0332 2.77344 11.0332 2.70312 11.0098C2.11719 10.9395 1.08594 10.7051 0.453125 10.4238C0.171875 10.2832 0.03125 9.95508 0.171875 9.67383C0.289062 9.39258 0.617188 9.27539 0.898438 9.39258C1.41406 9.60352 2.32812 9.83789 2.84375 9.9082C3.6875 10.0254 4.39062 9.95508 4.90625 9.76758C5.39844 9.58008 5.65625 9.29883 5.70312 8.94727C5.77344 8.68945 5.72656 8.50195 5.65625 8.38477C5.60938 8.24414 5.46875 8.10352 5.25781 7.98633C4.8125 7.70508 4.15625 7.51758 3.35938 7.33008L3.28906 7.30664C2.5625 7.11914 1.74219 6.9082 1.10938 6.5332C0.804688 6.32227 0.5 6.06445 0.3125 5.68945C0.125 5.29102 0.078125 4.86914 0.171875 4.40039C0.289062 3.7207 0.640625 3.25195 1.13281 2.94727C1.60156 2.64258 2.16406 2.52539 2.70312 2.47852C2.77344 2.45508 2.84375 2.45508 2.9375 2.45508V1.33008C2.9375 1.02539 3.17188 0.767578 3.5 0.767578C3.80469 0.767578 4.0625 1.02539 4.0625 1.33008Z" fill="black"/>
</svg>
