<svg width="15" height="16" viewBox="0 0 15 16" fill="none" xmlns="http://www.w3.org/2000/svg">
<path d="M7.5 13.4844C7.66406 13.4844 8.13281 13.3203 8.60156 12.3594C8.8125 11.9375 9 11.4453 9.11719 10.8594H5.85938C6 11.4453 6.16406 11.9375 6.375 12.3594C6.86719 13.3203 7.3125 13.4844 7.5 13.4844ZM5.67188 9.73438H9.30469C9.35156 9.38281 9.375 9.00781 9.375 8.60938C9.375 8.23438 9.35156 7.85938 9.30469 7.48438H5.67188C5.625 7.85938 5.625 8.23438 5.625 8.60938C5.625 9.00781 5.625 9.38281 5.67188 9.73438ZM5.85938 6.35938H9.11719C9 5.79688 8.8125 5.30469 8.60156 4.88281C8.13281 3.92188 7.66406 3.73438 7.5 3.73438C7.3125 3.73438 6.86719 3.92188 6.375 4.88281C6.16406 5.30469 6 5.79688 5.85938 6.35938ZM10.4297 7.48438C10.4766 7.85938 10.4766 8.23438 10.4766 8.60938C10.4766 9.00781 10.4766 9.38281 10.4297 9.73438H12.2344C12.3281 9.38281 12.375 9.00781 12.375 8.60938C12.375 8.23438 12.3281 7.85938 12.2344 7.48438H10.4297ZM11.8125 6.35938C11.3203 5.39844 10.5 4.625 9.51562 4.17969C9.84375 4.78906 10.1016 5.53906 10.2656 6.35938H11.8125ZM4.71094 6.35938C4.875 5.53906 5.13281 4.78906 5.46094 4.17969C4.47656 4.625 3.65625 5.39844 3.16406 6.35938H4.71094ZM2.74219 7.48438C2.67188 7.85938 2.625 8.23438 2.625 8.60938C2.625 9.00781 2.64844 9.38281 2.74219 9.73438H4.54688C4.5 9.38281 4.5 9.00781 4.5 8.60938C4.5 8.23438 4.5 7.85938 4.54688 7.48438H2.74219ZM9.51562 13.0625C10.5 12.6172 11.3203 11.8438 11.8125 10.8594H10.2656C10.1016 11.7031 9.84375 12.4531 9.51562 13.0625ZM5.46094 13.0625C5.13281 12.4531 4.875 11.7031 4.71094 10.8594H3.16406C3.65625 11.8438 4.47656 12.6172 5.46094 13.0625ZM7.5 14.6094C5.34375 14.6094 3.375 13.4844 2.29688 11.6094C1.21875 9.75781 1.21875 7.48438 2.29688 5.60938C3.375 3.75781 5.34375 2.60938 7.5 2.60938C9.63281 2.60938 11.6016 3.75781 12.6797 5.60938C13.7578 7.48438 13.7578 9.75781 12.6797 11.6094C11.6016 13.4844 9.63281 14.6094 7.5 14.6094Z" fill="black"/>
</svg>
