<svg width="12" height="10" viewBox="0 0 12 10" fill="none" xmlns="http://www.w3.org/2000/svg">
<path d="M11.0625 5.06445L6.9375 9.00195C6.70312 9.21289 6.35156 9.21289 6.14062 8.97852C5.92969 8.74414 5.92969 8.39258 6.16406 8.18164L9.28125 5.20508H1.3125C0.984375 5.20508 0.75 4.9707 0.75 4.64258C0.75 4.33789 0.984375 4.08008 1.3125 4.08008H9.28125L6.16406 1.12695C5.92969 0.916016 5.92969 0.541016 6.14062 0.330078C6.35156 0.0957031 6.72656 0.0957031 6.9375 0.306641L11.0625 4.24414C11.1797 4.36133 11.25 4.50195 11.25 4.64258C11.25 4.80664 11.1797 4.94727 11.0625 5.06445Z" fill="black"/>
</svg>
