<svg width="15" height="17" viewBox="0 0 15 17" fill="none" xmlns="http://www.w3.org/2000/svg">
<path d="M8 5.26953C9.96875 5.26953 11.5938 6.89453 11.5938 8.86328C11.5938 10.8633 9.96875 12.457 8 12.457C6 12.457 4.40625 10.8633 4.40625 8.86328C4.40625 6.89453 6 5.26953 8 5.26953ZM8 11.207C9.28125 11.207 10.3125 10.1758 10.3125 8.86328C10.3125 7.58203 9.28125 6.55078 8 6.55078C6.6875 6.55078 5.65625 7.58203 5.65625 8.86328C5.65625 10.1758 6.71875 11.207 8 11.207ZM12.5625 5.14453C12.5625 4.67578 12.1875 4.30078 11.7188 4.30078C11.25 4.30078 10.875 4.67578 10.875 5.14453C10.875 5.61328 11.25 5.98828 11.7188 5.98828C12.1875 5.98828 12.5625 5.61328 12.5625 5.14453ZM14.9375 5.98828C15 7.14453 15 10.6133 14.9375 11.7695C14.875 12.8945 14.625 13.8633 13.8125 14.707C13 15.5195 12 15.7695 10.875 15.832C9.71875 15.8945 6.25 15.8945 5.09375 15.832C3.96875 15.7695 3 15.5195 2.15625 14.707C1.34375 13.8633 1.09375 12.8945 1.03125 11.7695C0.96875 10.6133 0.96875 7.14453 1.03125 5.98828C1.09375 4.86328 1.34375 3.86328 2.15625 3.05078C3 2.23828 3.96875 1.98828 5.09375 1.92578C6.25 1.86328 9.71875 1.86328 10.875 1.92578C12 1.98828 13 2.23828 13.8125 3.05078C14.625 3.86328 14.875 4.86328 14.9375 5.98828ZM13.4375 12.9883C13.8125 12.082 13.7188 9.89453 13.7188 8.86328C13.7188 7.86328 13.8125 5.67578 13.4375 4.73828C13.1875 4.14453 12.7188 3.64453 12.125 3.42578C11.1875 3.05078 9 3.14453 8 3.14453C6.96875 3.14453 4.78125 3.05078 3.875 3.42578C3.25 3.67578 2.78125 4.14453 2.53125 4.73828C2.15625 5.67578 2.25 7.86328 2.25 8.86328C2.25 9.89453 2.15625 12.082 2.53125 12.9883C2.78125 13.6133 3.25 14.082 3.875 14.332C4.78125 14.707 6.96875 14.6133 8 14.6133C9 14.6133 11.1875 14.707 12.125 14.332C12.7188 14.082 13.2188 13.6133 13.4375 12.9883Z" fill="black"/>
</svg>
