<svg width="15" height="15" viewBox="0 0 15 15" fill="none" xmlns="http://www.w3.org/2000/svg">
<path d="M8 3.76953C9.96875 3.76953 11.5938 5.39453 11.5938 7.36328C11.5938 9.36328 9.96875 10.957 8 10.957C6 10.957 4.40625 9.36328 4.40625 7.36328C4.40625 5.39453 6 3.76953 8 3.76953ZM8 9.70703C9.28125 9.70703 10.3125 8.67578 10.3125 7.36328C10.3125 6.08203 9.28125 5.05078 8 5.05078C6.6875 5.05078 5.65625 6.08203 5.65625 7.36328C5.65625 8.67578 6.71875 9.70703 8 9.70703ZM12.5625 3.64453C12.5625 3.17578 12.1875 2.80078 11.7188 2.80078C11.25 2.80078 10.875 3.17578 10.875 3.64453C10.875 4.11328 11.25 4.48828 11.7188 4.48828C12.1875 4.48828 12.5625 4.11328 12.5625 3.64453ZM14.9375 4.48828C15 5.64453 15 9.11328 14.9375 10.2695C14.875 11.3945 14.625 12.3633 13.8125 13.207C13 14.0195 12 14.2695 10.875 14.332C9.71875 14.3945 6.25 14.3945 5.09375 14.332C3.96875 14.2695 3 14.0195 2.15625 13.207C1.34375 12.3633 1.09375 11.3945 1.03125 10.2695C0.96875 9.11328 0.96875 5.64453 1.03125 4.48828C1.09375 3.36328 1.34375 2.36328 2.15625 1.55078C3 0.738281 3.96875 0.488281 5.09375 0.425781C6.25 0.363281 9.71875 0.363281 10.875 0.425781C12 0.488281 13 0.738281 13.8125 1.55078C14.625 2.36328 14.875 3.36328 14.9375 4.48828ZM13.4375 11.4883C13.8125 10.582 13.7188 8.39453 13.7188 7.36328C13.7188 6.36328 13.8125 4.17578 13.4375 3.23828C13.1875 2.64453 12.7188 2.14453 12.125 1.92578C11.1875 1.55078 9 1.64453 8 1.64453C6.96875 1.64453 4.78125 1.55078 3.875 1.92578C3.25 2.17578 2.78125 2.64453 2.53125 3.23828C2.15625 4.17578 2.25 6.36328 2.25 7.36328C2.25 8.39453 2.15625 10.582 2.53125 11.4883C2.78125 12.1133 3.25 12.582 3.875 12.832C4.78125 13.207 6.96875 13.1133 8 13.1133C9 13.1133 11.1875 13.207 12.125 12.832C12.7188 12.582 13.2188 12.1133 13.4375 11.4883Z" fill="white"/>
</svg>
