<svg width="15" height="16" viewBox="0 0 15 16" fill="none" xmlns="http://www.w3.org/2000/svg">
<path d="M10.875 7.60938C10.875 5.75781 9.35156 4.23438 7.5 4.23438C5.625 4.23438 4.125 5.75781 4.125 7.60938C4.125 7.91406 4.21875 8.35938 4.47656 8.96875C4.71094 9.53125 5.0625 10.1875 5.46094 10.8438C6.14062 11.9219 6.91406 12.9531 7.5 13.7031C8.0625 12.9531 8.83594 11.9219 9.51562 10.8438C9.91406 10.1875 10.2656 9.53125 10.5 8.96875C10.7578 8.35938 10.875 7.91406 10.875 7.60938ZM12 7.60938C12 9.67188 9.25781 13.3047 8.03906 14.8281C7.75781 15.1797 7.21875 15.1797 6.9375 14.8281C5.74219 13.3047 3 9.67188 3 7.60938C3 5.125 5.01562 3.10938 7.5 3.10938C9.98438 3.10938 12 5.125 12 7.60938ZM8.25 7.60938C8.25 7.21094 7.89844 6.85938 7.5 6.85938C7.07812 6.85938 6.75 7.21094 6.75 7.60938C6.75 8.03125 7.07812 8.35938 7.5 8.35938C7.89844 8.35938 8.25 8.03125 8.25 7.60938ZM5.625 7.60938C5.625 6.95312 5.97656 6.34375 6.5625 5.99219C7.125 5.66406 7.85156 5.66406 8.4375 5.99219C9 6.34375 9.375 6.95312 9.375 7.60938C9.375 8.28906 9 8.89844 8.4375 9.25C7.85156 9.57812 7.125 9.57812 6.5625 9.25C5.97656 8.89844 5.625 8.28906 5.625 7.60938Z" fill="black"/>
</svg>
