<svg width="15" height="16" viewBox="0 0 15 16" fill="none" xmlns="http://www.w3.org/2000/svg">
<path d="M6.58594 2.49414C6.67969 2.2832 6.89062 2.14258 7.125 2.14258H7.875C8.08594 2.14258 8.29688 2.2832 8.39062 2.49414L12.6562 13.0176H12.9375C13.2422 13.0176 13.5 13.2754 13.5 13.5801C13.5 13.9082 13.2422 14.1426 12.9375 14.1426H2.0625C1.73438 14.1426 1.5 13.9082 1.5 13.5801C1.5 13.2754 1.73438 13.0176 2.0625 13.0176H2.32031L6.58594 2.49414ZM10.5469 10.7676H4.45312L3.51562 13.0176H11.4609L10.5469 10.7676ZM10.0781 9.64258L9 7.01758H5.97656L4.89844 9.64258H10.0781ZM6.42188 5.89258H8.55469L7.5 3.29102L6.42188 5.89258Z" fill="black"/>
</svg>
