<svg width="15" height="13" viewBox="0 0 15 13" fill="none" xmlns="http://www.w3.org/2000/svg">
<path d="M3.375 4.51758C2.69531 4.51758 2.08594 4.16602 1.73438 3.58008C1.40625 3.01758 1.40625 2.29102 1.73438 1.70508C2.08594 1.14258 2.69531 0.767578 3.375 0.767578C4.03125 0.767578 4.64062 1.14258 4.99219 1.70508C5.32031 2.29102 5.32031 3.01758 4.99219 3.58008C4.64062 4.16602 4.03125 4.51758 3.375 4.51758ZM12 4.51758C11.3203 4.51758 10.7109 4.16602 10.3594 3.58008C10.0312 3.01758 10.0312 2.29102 10.3594 1.70508C10.7109 1.14258 11.3203 0.767578 12 0.767578C12.6562 0.767578 13.2656 1.14258 13.6172 1.70508C13.9453 2.29102 13.9453 3.01758 13.6172 3.58008C13.2656 4.16602 12.6562 4.51758 12 4.51758ZM0 7.77539C0 6.39258 1.10156 5.26758 2.48438 5.26758H3.49219C3.86719 5.26758 4.21875 5.36133 4.54688 5.50195C4.5 5.66602 4.5 5.85352 4.5 6.01758C4.5 6.93164 4.875 7.72852 5.50781 8.26758H5.48438H0.492188C0.210938 8.26758 0 8.05664 0 7.77539ZM9.49219 8.26758H9.46875C10.1016 7.72852 10.5 6.93164 10.5 6.01758C10.5 5.85352 10.4766 5.66602 10.4531 5.50195C10.7578 5.36133 11.1094 5.26758 11.4844 5.26758H12.4922C13.875 5.26758 15 6.39258 15 7.77539C15 8.05664 14.7656 8.26758 14.4844 8.26758H9.49219ZM7.5 4.89258C7.07812 4.89258 6.72656 5.12695 6.51562 5.45508C6.30469 5.80664 6.30469 6.25195 6.51562 6.58008C6.72656 6.93164 7.07812 7.14258 7.5 7.14258C7.89844 7.14258 8.25 6.93164 8.46094 6.58008C8.67188 6.25195 8.67188 5.80664 8.46094 5.45508C8.25 5.12695 7.89844 4.89258 7.5 4.89258ZM7.5 8.26758C6.67969 8.26758 5.95312 7.8457 5.53125 7.14258C5.13281 6.46289 5.13281 5.5957 5.53125 4.89258C5.95312 4.21289 6.67969 3.76758 7.5 3.76758C8.29688 3.76758 9.02344 4.21289 9.44531 4.89258C9.84375 5.5957 9.84375 6.46289 9.44531 7.14258C9.02344 7.8457 8.29688 8.26758 7.5 8.26758ZM6.11719 10.1426C5.17969 10.1426 4.40625 10.7988 4.17188 11.6426H10.8047C10.5703 10.7988 9.79688 10.1426 8.85938 10.1426H6.11719ZM6.11719 9.01758H8.85938C10.5938 9.01758 12 10.4238 12 12.1582C12 12.5098 11.7188 12.7676 11.3672 12.7676H3.60938C3.25781 12.7676 3 12.4863 3 12.1582C3 10.4238 4.38281 9.01758 6.11719 9.01758Z" fill="black"/>
</svg>
