<svg width="15" height="16" viewBox="0 0 15 16" fill="none" xmlns="http://www.w3.org/2000/svg">
<path d="M3 5.39258C2.78906 5.39258 2.625 5.58008 2.625 5.76758V6.30664L6.65625 9.61133C7.14844 10.0098 7.82812 10.0098 8.32031 9.61133L12.375 6.30664V5.76758C12.375 5.58008 12.1875 5.39258 12 5.39258H3ZM2.625 7.75977V11.7676C2.625 11.9785 2.78906 12.1426 3 12.1426H12C12.1875 12.1426 12.375 11.9785 12.375 11.7676V7.75977L9.04688 10.4785C8.13281 11.2285 6.84375 11.2285 5.95312 10.4785L2.625 7.75977ZM1.5 5.76758C1.5 4.94727 2.15625 4.26758 3 4.26758H12C12.8203 4.26758 13.5 4.94727 13.5 5.76758V11.7676C13.5 12.6113 12.8203 13.2676 12 13.2676H3C2.15625 13.2676 1.5 12.6113 1.5 11.7676V5.76758Z" fill="black"/>
</svg>
