<svg width="21" height="21" viewBox="0 0 21 21" fill="none" xmlns="http://www.w3.org/2000/svg">
<path d="M6.82812 0.259766L14.9531 4.32227C15.2656 4.47852 15.5 4.79102 15.5 5.14258C15.5 5.49414 15.2656 5.8457 14.9531 6.00195L7.375 9.79102V11.002C8.35156 10.8457 9.40625 10.7676 10.5 10.7676C13.0781 10.7676 15.4609 11.2363 17.2578 11.9395C18.1562 12.3301 18.9375 12.7988 19.4844 13.3457C20.0703 13.8926 20.5 14.6348 20.5 15.4551C20.5 16.3145 20.0703 17.0566 19.4844 17.6035C18.8984 18.1504 18.1172 18.6191 17.2578 19.0098C15.4609 19.7129 13.0781 20.1426 10.5 20.1426C7.88281 20.1426 5.5 19.7129 3.70312 18.9707C2.84375 18.6191 2.0625 18.1504 1.47656 17.6035C0.890625 17.0566 0.5 16.3145 0.5 15.4551C0.5 14.6348 0.890625 13.8926 1.47656 13.3457C2.0625 12.7988 2.84375 12.3301 3.70312 11.9395C3.89844 11.9004 4.05469 11.8223 4.25 11.7441V13.7754C3.58594 14.0488 3.11719 14.3613 2.80469 14.6738C2.45312 15.0254 2.375 15.2988 2.375 15.4551C2.375 15.6504 2.45312 15.9238 2.80469 16.2754C3.11719 16.5879 3.66406 16.9395 4.44531 17.252C5.92969 17.877 8.07812 18.2676 10.5 18.2676C12.8828 18.2676 15.0312 17.877 16.5156 17.252C17.2969 16.9395 17.8438 16.5879 18.1953 16.2754C18.5078 15.9238 18.625 15.6504 18.625 15.4551C18.625 15.2988 18.5078 15.0254 18.1953 14.6738C17.8438 14.3613 17.2969 14.0098 16.5156 13.6973C15.0312 13.0723 12.8828 12.6426 10.5 12.6426C9.36719 12.6426 8.3125 12.7598 7.375 12.916V14.0098C7.72656 13.9707 8.15625 13.8926 8.625 13.8926C10.3438 13.8926 11.75 14.5566 11.75 15.2988C11.75 16.0801 10.3438 16.7051 8.625 16.7051C6.86719 16.7051 5.5 16.0801 5.5 15.2988V15.2598C5.5 15.2207 5.5 15.1816 5.5 15.1426V13.3066V11.3926V9.20508V8.89258V6.39258V1.08008C5.5 0.767578 5.65625 0.455078 5.92969 0.298828C6.20312 0.142578 6.55469 0.103516 6.82812 0.259766ZM7.375 7.7207L12.4531 5.14258L7.375 2.60352V7.7207Z" fill="black"/>
</svg>
