<svg width="15" height="16" viewBox="0 0 15 16" fill="none" xmlns="http://www.w3.org/2000/svg">
<path d="M10.2891 9.07812L12.9141 10.2031C13.3359 10.3672 13.5703 10.8125 13.4766 11.2578L12.9141 13.8828C12.8203 14.3047 12.4219 14.6328 12 14.6328C11.8359 14.6328 11.6953 14.6094 11.5547 14.6094C11.3203 14.6094 11.0859 14.5859 10.875 14.5625C5.60156 14 1.5 9.54688 1.5 4.10938C1.5 3.6875 1.80469 3.28906 2.22656 3.19531L4.85156 2.63281C5.29688 2.53906 5.74219 2.77344 5.90625 3.19531L7.03125 5.82031C7.19531 6.19531 7.10156 6.64062 6.77344 6.89844L5.8125 7.69531C6.44531 8.77344 7.33594 9.66406 8.41406 10.2969L9.21094 9.33594C9.46875 9.00781 9.91406 8.91406 10.2891 9.07812ZM11.8359 13.4844L12.3281 11.1641L9.98438 10.1562L9.30469 11C8.95312 11.4219 8.34375 11.5391 7.85156 11.2578C6.60938 10.5312 5.57812 9.5 4.85156 8.25781C4.57031 7.76562 4.6875 7.15625 5.10938 6.80469L5.95312 6.125L4.94531 3.78125L2.625 4.27344C2.69531 9.33594 6.77344 13.4141 11.8359 13.4844Z" fill="black"/>
</svg>
