<svg width="15" height="16" viewBox="0 0 15 16" fill="none" xmlns="http://www.w3.org/2000/svg">
<path d="M12.375 8.14258C12.375 6.4082 11.4375 4.81445 9.9375 3.92383C8.41406 3.05664 6.5625 3.05664 5.0625 3.92383C3.53906 4.81445 2.625 6.4082 2.625 8.14258C2.625 9.90039 3.53906 11.4941 5.0625 12.3848C6.5625 13.252 8.41406 13.252 9.9375 12.3848C11.4375 11.4941 12.375 9.90039 12.375 8.14258ZM1.5 8.14258C1.5 6.00977 2.625 4.04102 4.5 2.96289C6.35156 1.88477 8.625 1.88477 10.5 2.96289C12.3516 4.04102 13.5 6.00977 13.5 8.14258C13.5 10.2988 12.3516 12.2676 10.5 13.3457C8.625 14.4238 6.35156 14.4238 4.5 13.3457C2.625 12.2676 1.5 10.2988 1.5 8.14258ZM8.0625 4.95508V8.14258C8.0625 8.4707 7.80469 8.70508 7.5 8.70508C7.17188 8.70508 6.9375 8.4707 6.9375 8.14258V4.95508C6.9375 4.65039 7.17188 4.39258 7.5 4.39258C7.80469 4.39258 8.0625 4.65039 8.0625 4.95508Z" fill="black"/>
</svg>
