<svg width="15" height="16" viewBox="0 0 15 16" fill="none" xmlns="http://www.w3.org/2000/svg">
<path d="M3.65625 4.74414C3 5.58789 2.625 6.64258 2.625 7.76758C2.625 10.4629 4.80469 12.6426 7.5 12.6426C8.625 12.6426 9.67969 12.2676 10.5234 11.6113L3.65625 4.74414ZM7.52344 7.01758H10.875C11.0625 7.01758 11.25 7.20508 11.25 7.39258V8.89258C11.25 9.10352 11.0625 9.26758 10.875 9.26758H9.77344L11.3203 10.8145C11.9766 9.9707 12.375 8.91602 12.375 7.76758C12.375 5.0957 10.1719 2.89258 7.5 2.89258C6.35156 2.89258 5.29688 3.29102 4.45312 3.94727L7.52344 7.01758ZM8.27344 7.76758L9.02344 8.51758H10.5V7.76758H8.27344ZM7.5 13.7676C5.34375 13.7676 3.375 12.6426 2.29688 10.7676C1.21875 8.91602 1.21875 6.64258 2.29688 4.76758C3.375 2.91602 5.34375 1.76758 7.5 1.76758C9.63281 1.76758 11.6016 2.91602 12.6797 4.76758C13.7578 6.64258 13.7578 8.91602 12.6797 10.7676C11.6016 12.6426 9.63281 13.7676 7.5 13.7676ZM7.875 4.01758C8.0625 4.01758 8.25 4.20508 8.25 4.39258C8.25 4.60352 8.41406 4.76758 8.625 4.76758H9.375C9.98438 4.76758 10.5 5.2832 10.5 5.89258C10.5 6.10352 10.3125 6.26758 10.125 6.26758C9.91406 6.26758 9.75 6.10352 9.75 5.89258C9.75 5.70508 9.5625 5.51758 9.375 5.51758H8.625C7.99219 5.51758 7.5 5.02539 7.5 4.39258C7.5 4.20508 7.66406 4.01758 7.875 4.01758ZM4.125 7.01758H4.875L7.125 9.26758H4.125C3.91406 9.26758 3.75 9.10352 3.75 8.89258V7.39258C3.75 7.20508 3.91406 7.01758 4.125 7.01758Z" fill="black"/>
</svg>
