<svg width="16" height="17" viewBox="0 0 16 17" fill="none" xmlns="http://www.w3.org/2000/svg">
<path d="M8 1.11328C12.25 1.11328 15.75 4.61328 15.75 8.86328C15.75 13.1445 12.25 16.6133 8 16.6133C3.71875 16.6133 0.25 13.1445 0.25 8.86328C0.25 4.61328 3.71875 1.11328 8 1.11328ZM11.5625 6.39453C11.5938 6.30078 11.5938 6.20703 11.5625 6.08203C11.5625 6.01953 11.5 5.92578 11.4688 5.89453C11.375 5.80078 11.2188 5.80078 11.1562 5.80078C10.875 5.80078 10.4062 5.95703 8.25 6.86328C7.5 7.17578 6 7.80078 3.75 8.80078C3.375 8.95703 3.1875 9.08203 3.15625 9.23828C3.125 9.48828 3.53125 9.58203 4 9.73828C4.40625 9.86328 4.9375 10.0195 5.21875 10.0195C5.46875 10.0195 5.75 9.92578 6.0625 9.70703C8.15625 8.26953 9.25 7.55078 9.3125 7.55078C9.375 7.55078 9.4375 7.51953 9.46875 7.55078C9.53125 7.61328 9.53125 7.67578 9.5 7.70703C9.46875 7.86328 7.5 9.67578 7.375 9.80078C6.9375 10.2383 6.4375 10.5195 7.21875 11.0195C7.875 11.457 8.25 11.7383 8.9375 12.1758C9.375 12.457 9.71875 12.8008 10.1562 12.7695C10.375 12.7383 10.5938 12.5508 10.6875 11.957C10.9688 10.6133 11.4688 7.61328 11.5625 6.39453Z" fill="black"/>
</svg>
