<svg width="16" height="17" viewBox="0 0 16 17" fill="none" xmlns="http://www.w3.org/2000/svg">
<path d="M8 0.613281C12.25 0.613281 15.75 4.11328 15.75 8.36328C15.75 12.6445 12.25 16.1133 8 16.1133C3.71875 16.1133 0.25 12.6445 0.25 8.36328C0.25 4.11328 3.71875 0.613281 8 0.613281ZM11.5625 5.89453C11.5938 5.80078 11.5938 5.70703 11.5625 5.58203C11.5625 5.51953 11.5 5.42578 11.4688 5.39453C11.375 5.30078 11.2188 5.30078 11.1562 5.30078C10.875 5.30078 10.4062 5.45703 8.25 6.36328C7.5 6.67578 6 7.30078 3.75 8.30078C3.375 8.45703 3.1875 8.58203 3.15625 8.73828C3.125 8.98828 3.53125 9.08203 4 9.23828C4.40625 9.36328 4.9375 9.51953 5.21875 9.51953C5.46875 9.51953 5.75 9.42578 6.0625 9.20703C8.15625 7.76953 9.25 7.05078 9.3125 7.05078C9.375 7.05078 9.4375 7.01953 9.46875 7.05078C9.53125 7.11328 9.53125 7.17578 9.5 7.20703C9.46875 7.36328 7.5 9.17578 7.375 9.30078C6.9375 9.73828 6.4375 10.0195 7.21875 10.5195C7.875 10.957 8.25 11.2383 8.9375 11.6758C9.375 11.957 9.71875 12.3008 10.1562 12.2695C10.375 12.2383 10.5938 12.0508 10.6875 11.457C10.9688 10.1133 11.4688 7.11328 11.5625 5.89453Z" fill="white"/>
</svg>
