<svg width="15" height="16" viewBox="0 0 15 16" fill="none" xmlns="http://www.w3.org/2000/svg">
<path d="M12.375 7.76758C12.375 6.0332 11.4375 4.43945 9.9375 3.54883C8.41406 2.68164 6.5625 2.68164 5.0625 3.54883C3.53906 4.43945 2.625 6.0332 2.625 7.76758C2.625 9.52539 3.53906 11.1191 5.0625 12.0098C6.5625 12.877 8.41406 12.877 9.9375 12.0098C11.4375 11.1191 12.375 9.52539 12.375 7.76758ZM1.5 7.76758C1.5 5.63477 2.625 3.66602 4.5 2.58789C6.35156 1.50977 8.625 1.50977 10.5 2.58789C12.3516 3.66602 13.5 5.63477 13.5 7.76758C13.5 9.92383 12.3516 11.8926 10.5 12.9707C8.625 14.0488 6.35156 14.0488 4.5 12.9707C2.625 11.8926 1.5 9.92383 1.5 7.76758ZM6.9375 4.58008C6.9375 4.27539 7.17188 4.01758 7.5 4.01758C7.80469 4.01758 8.0625 4.27539 8.0625 4.58008V7.48633L10.0547 8.79883C10.3125 8.98633 10.3828 9.33789 10.2188 9.5957C10.0312 9.85352 9.67969 9.92383 9.42188 9.73633L7.17188 8.23633C7.03125 8.14258 6.9375 7.95508 6.9375 7.76758V4.58008Z" fill="black"/>
</svg>
