<svg width="15" height="16" viewBox="0 0 15 16" fill="none" xmlns="http://www.w3.org/2000/svg">
<path d="M10.2891 8.61133L12.9141 9.73633C13.3359 9.90039 13.5703 10.3457 13.4766 10.791L12.9141 13.416C12.8203 13.8379 12.4219 14.166 12 14.166C11.8359 14.166 11.6953 14.1426 11.5547 14.1426C11.3203 14.1426 11.0859 14.1191 10.875 14.0957C5.60156 13.5332 1.5 9.08008 1.5 3.64258C1.5 3.2207 1.80469 2.82227 2.22656 2.72852L4.85156 2.16602C5.29688 2.07227 5.74219 2.30664 5.90625 2.72852L7.03125 5.35352C7.19531 5.72852 7.10156 6.17383 6.77344 6.43164L5.8125 7.22852C6.44531 8.30664 7.33594 9.19727 8.41406 9.83008L9.21094 8.86914C9.46875 8.54102 9.91406 8.44727 10.2891 8.61133ZM11.8359 13.0176L12.3281 10.6973L9.98438 9.68945L9.30469 10.5332C8.95312 10.9551 8.34375 11.0723 7.85156 10.791C6.60938 10.0645 5.57812 9.0332 4.85156 7.79102C4.57031 7.29883 4.6875 6.68945 5.10938 6.33789L5.95312 5.6582L4.94531 3.31445L2.625 3.80664C2.69531 8.86914 6.77344 12.9473 11.8359 13.0176Z" fill="black"/>
</svg>
